<svg width="20" height="21" viewBox="0 0 20 21" fill="none" xmlns="http://www.w3.org/2000/svg">
<g clip-path="url(#clip0_2082_6830)">
<path d="M4.43242 12.565L3.73625 15.1639L1.19176 15.2178C0.431328 13.8073 0 12.1936 0 10.4788C0 8.82055 0.403281 7.2568 1.11812 5.87988H1.11867L3.38398 6.29519L4.37633 8.54691C4.16863 9.15242 4.05543 9.80242 4.05543 10.4788C4.05551 11.2129 4.18848 11.9162 4.43242 12.565Z" fill="#FBBB00"/>
<path d="M19.8253 8.6123C19.9401 9.21723 20 9.84195 20 10.4804C20 11.1964 19.9247 11.8947 19.7813 12.5684C19.2945 14.8607 18.0225 16.8623 16.2605 18.2788L16.2599 18.2782L13.4066 18.1327L13.0028 15.6118C14.172 14.9261 15.0858 13.853 15.5671 12.5684H10.2198V8.6123H15.6451H19.8253Z" fill="#518EF8"/>
<path d="M16.2599 18.277L16.2604 18.2775C14.5467 19.655 12.3698 20.4791 10 20.4791C6.19177 20.4791 2.8808 18.3506 1.19177 15.2182L4.43244 12.5654C5.27693 14.8193 7.45111 16.4237 10 16.4237C11.0956 16.4237 12.122 16.1275 13.0027 15.6105L16.2599 18.277Z" fill="#28B446"/>
<path d="M16.3829 2.78266L13.1434 5.43484C12.2319 4.86508 11.1544 4.53594 9.99998 4.53594C7.39338 4.53594 5.17853 6.21394 4.37635 8.54859L1.11865 5.88156H1.1181C2.7824 2.67277 6.13513 0.480469 9.99998 0.480469C12.4263 0.480469 14.6511 1.34477 16.3829 2.78266Z" fill="#F14336"/>
</g>
<defs>
<clipPath id="clip0_2082_6830">
<rect width="20" height="20" fill="white" transform="translate(0 0.480469)"/>
</clipPath>
</defs>
</svg>
