<?xml version="1.0" encoding="utf-8"?>
<!-- Generator: Adobe Illustrator 24.3.0, SVG Export Plug-In . SVG Version: 6.00 Build 0)  -->
<svg version="1.1" id="Layer_1" xmlns="http://www.w3.org/2000/svg" xmlns:xlink="http://www.w3.org/1999/xlink" x="0px" y="0px"
	 viewBox="0 0 423 278.6" style="enable-background:new 0 0 423 278.6;" xml:space="preserve">
<style type="text/css">
	.st0{fill:#29C8F0;}
</style>
<path class="st0" d="M68.5,162.1c11.1,31,31.2,55.9,50.1,81.6c3.3,4.5,7.2,3.9,11.4,3.5c2.4-0.3,1.4-1.6,0.7-2.8
	c-3.7-6-7.3-11.9-11.1-17.8c-0.9-1-1.4-2.3-1.6-3.6c4.5,0.3,7.6,3.2,11,5.3c7.3,4.6,14.6,9.3,21.8,14.2c3.6,2.5,7.3,3.9,12.4,2.2
	c-26.6-17.7-51.8-37-69.9-63.7c-17.7-26-16.9-45.5,3.2-70c12.5-15.2,27.8-27.2,44.4-37.6c1.2-0.7,2.6-2.3,4-0.8
	c1.6,1.7-0.6,2.6-1.4,3.6c-9.9,10.4-18.7,21.8-26.3,33.9c-12.4,19.6-12.1,40.4-3.3,61.2c2.8,6.5,8.4,11.6,13.1,17
	c15.1,17.4,32.3,32.6,50,47.5c0.8-5.6-2-16.6-5.9-23.8c-6.1-11.1-13.2-21.6-21.2-31.4c-31.2-36.5-11.2-84.2,18.1-114.7
	c18.5-19.2,32.7-41.6,43.6-65.8c3.5,6.8,6.6,13.2,9.9,19.4c10.2,19.1,24,35.5,38.4,51.6c25.2,27.2,42.3,71.6,17.3,104.4
	c-8.6,11.8-17.7,23.4-24.7,36.3c-3.9,7.2-5.8,15-6.8,24.5c20-16.8,38.3-33.2,55.4-52.7c18.9-21.9,20-53.9,2.7-77.1
	c-7.8-10.4-15.2-21.1-24.2-30.5c-0.9-0.9-2.5-1.7-1.4-3.2c0.9-1.3,2.1-0.5,3.1,0.1c31.4,20.1,78.5,57,54.4,98.7
	c-18,31.2-46.2,54.2-76.2,73.2c4.6,1,8,1,11.5-1.4c9.4-6.3,19-12.3,28.5-18.5c1.4-0.9,2.5-2.3,4.6-1.7c-0.2,2-0.9,4-2.1,5.6
	c-2.5,4-5.1,7.9-7.2,12c-1,1.9-4.2,3.6-2.2,6.1c1.5,1.8,9,0.5,10.5-1.6c16.4-21,32.3-42.4,44.6-66.2c2.9-5.5,5.1-11.3,6.3-17.4
	c8,6.7-16.1,71.3-19.9,83.2c-1.2,3.4-1.2,4.9,3.1,5.5c13.1,1.6,12.9,1.8,15.6-11c3.9-18.2,7.5-36.6,14.6-53.9
	c1.4-3.3,2.3-7.8,6.4-8.2c3.8-0.4,5.7,3.7,7.6,6.5c18.3,27.5,31.8,57.9,41.1,89.5c1.1,4.1,0.8,5.4-4,5.2
	c-59.1-2.6-118.1-4.8-177.2-7.6c-78.8-1.6-158.7,5.3-237.6,7.7c-3.7,0.2-4.2-0.8-3.3-4.2c9-31.8,22.7-62,40.7-89.7
	c2-3.1,4.1-7.6,8.2-7.3c4.4,0.4,5.4,5.4,6.8,9c7.4,19,11.4,39,15.3,58.9c1,5,2.2,6.8,7.9,6c11.4-1.7,11.4-1.2,7.7-12.2
	C82.5,225.3,63.2,172.8,68.5,162.1z M225.7,172.1l0,0.1c-0.9,1.1-1.3,2.5-1.2,3.9c-1,1.9-1.7,3.9-2,6c-0.9,2.1-1.8,4.2-2.6,6.3
	c-0.4,0.9-0.7,2,0.4,2.5c0.9,0.4,1.5-0.4,1.9-1.1c1.5-2.5,2.9-5.1,4.3-7.7c10.4-17.2,19.6-35.2,24.7-54.8
	c2.8-10.6,1.8-21.8-2.9-31.7c-8.5-18.7-21.1-34.6-34.4-50c-2.1-2.4-3.4-1.7-5.2,0.3c-11.1,12.9-21.5,26.3-29.9,41.1
	c-7.8,13.7-11,27.9-6.2,43.6c6.7,21.8,17.5,41.5,29.9,61.9c-0.1-2.7,0-4.2-0.4-5.5c-5.2-17.4-10.7-34.7-20.4-50.2
	c-2.2-3.6-2.3-6.2-0.3-9.9c9.4-17.4,18.5-35,27.7-52.6c0.6-1.1,0.7-2.9,2.4-2.8c1.5,0.1,1.7,1.9,2.3,3c9.1,17.4,18.1,34.9,27.5,52.1
	c2.3,4.2,1.8,7-0.6,10.8c-6.4,10.3-11.3,21.6-14.5,33.3L225.7,172.1z M21.3,256.6c10.6-1,20.2-2,29.7-2.9c1.8-0.2,2.7-0.8,2.7-2.7
	c-0.1-15.1-0.3-30.3-4.4-45c-0.5-1.8-0.9-3.8-3.3-5.1C37.9,219.3,29.8,237.4,21.3,256.6z M376.5,199.7c-1.3,3-2.3,4.5-2.8,6.2
	c-4,14.7-4.2,29.9-4.4,45c0,1.6,0.5,2.5,2.2,2.7c9.8,0.9,19.6,1.9,30.2,2.9L376.5,199.7z"/>
<path class="st0" d="M222.5,182h4c-1.4,2.6-2.8,5.1-4.3,7.7c-0.4,0.7-1,1.6-1.9,1.1c-1.1-0.5-0.8-1.6-0.4-2.5
	C220.7,186.2,221.6,184.1,222.5,182z"/>
<path class="st0" d="M225.6,172.2c-0.1,1.4,0.4,2.9-1.2,3.9C224.3,174.6,224.7,173.2,225.6,172.2z"/>
<path class="st0" d="M226.4,170.6l-0.7,1.5L226.4,170.6z"/>
</svg>
