<svg width="150" height="150" viewBox="0 0 150 150" fill="none" xmlns="http://www.w3.org/2000/svg">
<rect x="72.5" y="75.5" width="6" height="51" rx="3" fill="#9CE0FF" stroke="#9CE0FF"/>
<rect x="72.5" y="23.5" width="6" height="51" rx="3" fill="#9CE0FF" stroke="#9CE0FF"/>
<rect x="130" y="74" width="5" height="52" rx="2.5" transform="rotate(90 130 74)" fill="white" stroke="#9CE0FF" stroke-width="2"/>
<rect x="76.5" y="73.5" width="6" height="56" rx="3" transform="rotate(90 76.5 73.5)" fill="#9CE0FF" stroke="#9CE0FF"/>
<rect x="115.566" y="113.184" width="4.78261" height="52" rx="2.3913" transform="rotate(135 115.566 113.184)" fill="white" stroke="#9CE0FF" stroke-width="2"/>
<path d="M74.9188 71.5691C76.0487 72.6991 76.0515 74.5342 74.9232 75.6625C73.7941 76.7916 71.9634 76.7916 70.8343 75.6625L34.0557 38.8839C32.9266 37.7548 32.9266 35.9241 34.0557 34.795C35.184 33.6667 37.0191 33.6695 38.1491 34.7994L74.9188 71.5691Z" fill="#9CE0FF" stroke="#9CE0FF"/>
<rect x="114.335" y="34.4142" width="4.78261" height="57.2376" rx="2.3913" transform="rotate(45 114.335 34.4142)" fill="white" stroke="#9CE0FF" stroke-width="2"/>
<rect x="72.6328" y="74.7071" width="5.78261" height="53.6354" rx="2.8913" transform="rotate(45 72.6328 74.7071)" fill="#9CE0FF" stroke="#9CE0FF"/>
<path d="M90.1807 47.4869L78.9642 58.7034C78.0304 59.6372 76.5163 59.6372 75.5824 58.7034C74.6486 57.7695 74.6486 56.2554 75.5824 55.3215L86.7988 44.1051C87.7327 43.1713 89.2468 43.1713 90.1807 44.1051C91.1145 45.039 91.1145 46.5531 90.1807 47.4869Z" fill="white" stroke="#9CE0FF" stroke-width="2"/>
<path d="M89.0332 104.477L78.4874 93.9311C77.5535 92.9972 76.0394 92.9972 75.1055 93.9311C74.1717 94.865 74.1717 96.379 75.1055 97.3129L85.6514 107.859C86.5852 108.793 88.0993 108.793 89.0332 107.859C89.9671 106.925 89.9671 105.411 89.0332 104.477Z" fill="white" stroke="#9CE0FF" stroke-width="2"/>
<path d="M89.0332 118.042L78.4874 107.496C77.5535 106.562 76.0394 106.562 75.1055 107.496C74.1717 108.43 74.1717 109.944 75.1055 110.878L85.6514 121.424C86.5852 122.358 88.0993 122.358 89.0332 121.424C89.9671 120.49 89.9671 118.976 89.0332 118.042Z" fill="white" stroke="#9CE0FF" stroke-width="2"/>
<path d="M65.2754 121.777C64.1463 122.907 62.3156 122.907 61.1865 121.777C60.0574 120.648 60.0574 118.818 61.1865 117.689L71.7323 107.143C72.8615 106.014 74.6921 106.014 75.8213 107.143C76.9504 108.272 76.9504 110.103 75.8213 111.232L65.2754 121.777Z" fill="#9CE0FF" stroke="#9CE0FF"/>
<path d="M65.2754 108.212C64.1463 109.341 62.3156 109.341 61.1865 108.212C60.0574 107.083 60.0574 105.253 61.1865 104.123L71.7323 93.5775C72.8615 92.4484 74.6921 92.4484 75.8213 93.5775C76.9504 94.7067 76.9504 96.5373 75.8213 97.6665L65.2754 108.212Z" fill="#9CE0FF" stroke="#9CE0FF"/>
<path d="M107.12 65.6609L96.5738 76.2067C95.6399 77.1406 94.1258 77.1406 93.192 76.2067C92.2581 75.2729 92.2581 73.7588 93.192 72.8249L103.738 62.2791C104.672 61.3452 106.186 61.3452 107.12 62.2791C108.053 63.2129 108.053 64.727 107.12 65.6609Z" fill="white" stroke="#9CE0FF" stroke-width="2"/>
<path d="M122.946 65.6609L112.4 76.2067C111.466 77.1406 109.952 77.1406 109.018 76.2067C108.084 75.2729 108.084 73.7588 109.018 72.8249L119.564 62.2791C120.498 61.3452 122.012 61.3452 122.946 62.2791C123.88 63.2129 123.88 64.727 122.946 65.6609Z" fill="white" stroke="#9CE0FF" stroke-width="2"/>
<path d="M107.12 86.39L96.5738 75.8442C95.6399 74.9103 94.1258 74.9103 93.192 75.8442C92.2581 76.778 92.2581 78.2921 93.192 79.226L103.738 89.7718C104.672 90.7057 106.186 90.7057 107.12 89.7718C108.053 88.838 108.053 87.3239 107.12 86.39Z" fill="white" stroke="#9CE0FF" stroke-width="2"/>
<path d="M47.1885 90.1254C46.0594 91.2545 44.2287 91.2545 43.0996 90.1254C41.9705 88.9963 41.9705 87.1656 43.0996 86.0365L53.6454 75.4906C54.7745 74.3615 56.6052 74.3615 57.7343 75.4906C58.8635 76.6197 58.8635 78.4504 57.7343 79.5795L47.1885 90.1254Z" fill="#9CE0FF" stroke="#9CE0FF"/>
<path d="M31.3623 90.1254C30.2332 91.2545 28.4025 91.2545 27.2734 90.1254C26.1443 88.9963 26.1443 87.1656 27.2734 86.0365L37.8193 75.4906C38.9484 74.3615 40.7791 74.3615 41.9082 75.4906C43.0373 76.6197 43.0373 78.4504 41.9082 79.5795L31.3623 90.1254Z" fill="#9CE0FF" stroke="#9CE0FF"/>
<path d="M47.1885 61.9255C46.0594 60.7964 44.2287 60.7964 43.0996 61.9255C41.9705 63.0546 41.9705 64.8853 43.0996 66.0144L53.6454 76.5603C54.7745 77.6894 56.6052 77.6894 57.7343 76.5603C58.8635 75.4312 58.8635 73.6005 57.7343 72.4714L47.1885 61.9255Z" fill="#9CE0FF" stroke="#9CE0FF"/>
<path d="M31.3623 61.9255C30.2332 60.7964 28.4025 60.7964 27.2734 61.9255C26.1443 63.0546 26.1443 64.8853 27.2734 66.0144L37.8193 76.5603C38.9484 77.6894 40.7791 77.6894 41.9082 76.5603C43.0373 75.4312 43.0373 73.6005 41.9082 72.4714L31.3623 61.9255Z" fill="#9CE0FF" stroke="#9CE0FF"/>
<path d="M122.946 86.39L112.4 75.8442C111.466 74.9103 109.952 74.9103 109.018 75.8442C108.084 76.778 108.084 78.2921 109.018 79.226L119.564 89.7718C120.498 90.7057 122.012 90.7057 122.946 89.7718C123.88 88.838 123.88 87.3239 122.946 86.39Z" fill="white" stroke="#9CE0FF" stroke-width="2"/>
<path d="M65.2754 43.8385C64.1463 42.7094 62.3156 42.7094 61.1865 43.8385C60.0574 44.9676 60.0574 46.7983 61.1865 47.9274L71.7323 58.4732C72.8615 59.6024 74.6921 59.6024 75.8213 58.4732C76.9504 57.3441 76.9504 55.5134 75.8213 54.3843L65.2754 43.8385Z" fill="#9CE0FF" stroke="#9CE0FF"/>
<path d="M89.0332 31.7478L78.4874 42.2936C77.5535 43.2275 76.0394 43.2275 75.1055 42.2936C74.1717 41.3598 74.1717 39.8457 75.1055 38.9118L85.6514 28.366C86.5852 27.4321 88.0993 27.4321 89.0332 28.366C89.9671 29.2998 89.9671 30.8139 89.0332 31.7478Z" fill="white" stroke="#9CE0FF" stroke-width="2"/>
<path d="M100.391 49H118.478C119.799 49 120.87 50.0706 120.87 51.3913C120.87 52.712 119.799 53.7826 118.478 53.7826H100.391C99.0706 53.7826 98 52.712 98 51.3913C98 50.0706 99.0706 49 100.391 49Z" fill="white" stroke="#9CE0FF" stroke-width="2"/>
<path d="M30.174 54.1521C28.5772 54.1521 27.2827 52.8576 27.2827 51.2608C27.2827 49.664 28.5772 48.3695 30.174 48.3695H48.261C49.8578 48.3695 51.1523 49.664 51.1523 51.2608C51.1523 52.8576 49.8578 54.1521 48.261 54.1521H30.174Z" fill="#9CE0FF" stroke="#9CE0FF"/>
<path d="M100.391 98H118.478C119.799 98 120.87 99.0706 120.87 100.391C120.87 101.712 119.799 102.783 118.478 102.783H100.391C99.0706 102.783 98 101.712 98 100.391C98 99.0706 99.0706 98 100.391 98Z" fill="white" stroke="#9CE0FF" stroke-width="2"/>
<path d="M31.3913 103.283C29.7945 103.283 28.5 101.988 28.5 100.391C28.5 98.7945 29.7945 97.5 31.3913 97.5H49.4783C51.0751 97.5 52.3696 98.7945 52.3696 100.391C52.3696 101.988 51.0751 103.283 49.4783 103.283H31.3913Z" fill="#9CE0FF" stroke="#9CE0FF"/>
<path d="M102 50.5V32.5C102 31.1193 100.881 30 99.5 30C98.1193 30 97 31.1193 97 32.5V50.5C97 51.8807 98.1193 53 99.5 53C100.881 53 102 51.8807 102 50.5Z" fill="white" stroke="#9CE0FF" stroke-width="2"/>
<path d="M102 119.5V102.5C102 101.119 100.881 99.9999 99.5001 99.9999C98.1194 99.9999 97.0001 101.119 97.0001 102.5V119.5C97.0001 120.881 98.1194 122 99.5001 122C100.881 122 102 120.881 102 119.5Z" fill="white" stroke="#9CE0FF" stroke-width="2" stroke-miterlimit="16"/>
<path d="M47.5 118.5C47.5 120.157 48.8431 121.5 50.5 121.5C52.1569 121.5 53.5 120.157 53.5 118.5V102.5C53.5 100.843 52.1569 99.5 50.5 99.5C48.8431 99.5 47.5 100.843 47.5 102.5V118.5Z" fill="#9CE0FF" stroke="#9CE0FF"/>
<path d="M47.6313 48.9999C47.6313 50.5968 48.9258 51.8912 50.5227 51.8912C52.1195 51.8912 53.414 50.5968 53.414 48.9999V30.913C53.414 29.3162 52.1195 28.0217 50.5227 28.0217C48.9258 28.0217 47.6313 29.3162 47.6313 30.913V48.9999Z" fill="#9CE0FF" stroke="#9CE0FF"/>
<path d="M65.2754 28.0124C64.1463 26.8833 62.3156 26.8833 61.1865 28.0124C60.0574 29.1416 60.0574 30.9722 61.1865 32.1014L71.7323 42.6472C72.8615 43.7763 74.6921 43.7763 75.8213 42.6472C76.9504 41.5181 76.9504 39.6874 75.8213 38.5583L65.2754 28.0124Z" fill="#9CE0FF" stroke="#9CE0FF"/>
<circle cx="75.1958" cy="76.5" r="11.5" fill="white" stroke="#9CE0FF" stroke-width="2"/>
<rect x="93" y="74" width="4" height="3" rx="1.5" fill="white"/>
<path d="M75 25V25C76.1046 25 77 25.8954 77 27V123C77 124.105 76.1046 125 75 125V125V25Z" fill="white"/>
<rect x="118" y="75" width="3" height="40" transform="rotate(90 118 75)" fill="white"/>
<rect x="109" y="74" width="4" height="3" rx="1.5" fill="white"/>
<rect x="100" y="50" width="4" height="3" rx="1.5" fill="white"/>
<rect x="105.42" y="44.6702" width="2.81306" height="36.4828" transform="rotate(45 105.42 44.6702)" fill="white"/>
<rect x="81.7119" y="84.6487" width="2.78354" height="35.1351" transform="rotate(-45 81.7119 84.6487)" fill="white"/>
<path d="M63 76.5C63 70.1487 68.1487 65 74.5 65H75V88H74.5C68.1487 88 63 82.8513 63 76.5Z" fill="#9CE0FF"/>
<rect x="100" y="99" width="4" height="3" rx="1.5" fill="white"/>
</svg>
