<svg width="150" height="150" viewBox="0 0 150 150" fill="none" xmlns="http://www.w3.org/2000/svg">
<rect x="73" y="76" width="5" height="50" rx="2.5" fill="white" stroke="#9CE0FF" stroke-width="2"/>
<rect x="73" y="24" width="5" height="50" rx="2.5" fill="white" stroke="#9CE0FF" stroke-width="2"/>
<rect x="130" y="74" width="5" height="52" rx="2.5" transform="rotate(90 130 74)" fill="white" stroke="#9CE0FF" stroke-width="2"/>
<rect x="76" y="74" width="5" height="55" rx="2.5" transform="rotate(90 76 74)" fill="white" stroke="#9CE0FF" stroke-width="2"/>
<rect x="115.566" y="113.184" width="4.78261" height="52" rx="2.3913" transform="rotate(135 115.566 113.184)" fill="white" stroke="#9CE0FF" stroke-width="2"/>
<rect x="76.2606" y="73.618" width="4.78261" height="56.7954" rx="2.3913" transform="rotate(135 76.2606 73.618)" fill="white" stroke="#9CE0FF" stroke-width="2"/>
<rect x="114.335" y="34.4142" width="4.78261" height="57.2376" rx="2.3913" transform="rotate(45 114.335 34.4142)" fill="white" stroke="#9CE0FF" stroke-width="2"/>
<rect x="72.6328" y="75.4142" width="4.78261" height="52.6354" rx="2.3913" transform="rotate(45 72.6328 75.4142)" fill="white" stroke="#9CE0FF" stroke-width="2"/>
<path d="M90.1807 47.4869L78.9642 58.7034C78.0304 59.6372 76.5163 59.6372 75.5824 58.7034C74.6486 57.7695 74.6486 56.2554 75.5824 55.3215L86.7988 44.1051C87.7327 43.1713 89.2468 43.1713 90.1807 44.1051C91.1145 45.039 91.1145 46.5531 90.1807 47.4869Z" fill="white" stroke="#9CE0FF" stroke-width="2"/>
<path d="M89.0332 104.477L78.4874 93.9311C77.5535 92.9972 76.0394 92.9972 75.1055 93.9311C74.1717 94.865 74.1717 96.379 75.1055 97.3129L85.6514 107.859C86.5852 108.793 88.0993 108.793 89.0332 107.859C89.9671 106.925 89.9671 105.411 89.0332 104.477Z" fill="white" stroke="#9CE0FF" stroke-width="2"/>
<path d="M89.0332 118.042L78.4874 107.496C77.5535 106.562 76.0394 106.562 75.1055 107.496C74.1717 108.43 74.1717 109.944 75.1055 110.878L85.6514 121.424C86.5852 122.358 88.0993 122.358 89.0332 121.424C89.9671 120.49 89.9671 118.976 89.0332 118.042Z" fill="white" stroke="#9CE0FF" stroke-width="2"/>
<path d="M61.54 118.042L72.0859 107.496C73.0198 106.562 74.5338 106.562 75.4677 107.496C76.4016 108.43 76.4016 109.944 75.4677 110.878L64.9219 121.424C63.988 122.358 62.4739 122.358 61.54 121.424C60.6062 120.49 60.6062 118.976 61.54 118.042Z" fill="white" stroke="#9CE0FF" stroke-width="2"/>
<path d="M61.54 104.477L72.0859 93.9311C73.0198 92.9972 74.5338 92.9972 75.4677 93.9311C76.4016 94.865 76.4016 96.379 75.4677 97.3129L64.9219 107.859C63.988 108.793 62.4739 108.793 61.54 107.859C60.6062 106.925 60.6062 105.411 61.54 104.477Z" fill="white" stroke="#9CE0FF" stroke-width="2"/>
<path d="M107.12 65.6609L96.5738 76.2067C95.6399 77.1406 94.1258 77.1406 93.192 76.2067C92.2581 75.2729 92.2581 73.7588 93.192 72.8249L103.738 62.2791C104.672 61.3452 106.186 61.3452 107.12 62.2791C108.053 63.2129 108.053 64.727 107.12 65.6609Z" fill="white" stroke="#9CE0FF" stroke-width="2"/>
<path d="M122.946 65.6609L112.4 76.2067C111.466 77.1406 109.952 77.1406 109.018 76.2067C108.084 75.2729 108.084 73.7588 109.018 72.8249L119.564 62.2791C120.498 61.3452 122.012 61.3452 122.946 62.2791C123.88 63.2129 123.88 64.727 122.946 65.6609Z" fill="white" stroke="#9CE0FF" stroke-width="2"/>
<path d="M107.12 86.39L96.5738 75.8442C95.6399 74.9103 94.1258 74.9103 93.192 75.8442C92.2581 76.778 92.2581 78.2921 93.192 79.226L103.738 89.7718C104.672 90.7057 106.186 90.7057 107.12 89.7718C108.053 88.838 108.053 87.3239 107.12 86.39Z" fill="white" stroke="#9CE0FF" stroke-width="2"/>
<path d="M43.4531 86.39L53.999 75.8442C54.9328 74.9103 56.4469 74.9103 57.3808 75.8442C58.3147 76.778 58.3147 78.2921 57.3808 79.226L46.835 89.7718C45.9011 90.7057 44.387 90.7057 43.4531 89.7718C42.5193 88.838 42.5193 87.3239 43.4531 86.39Z" fill="white" stroke="#9CE0FF" stroke-width="2"/>
<path d="M27.627 86.39L38.1728 75.8442C39.1067 74.9103 40.6208 74.9103 41.5546 75.8442C42.4885 76.778 42.4885 78.2921 41.5546 79.226L31.0088 89.7718C30.0749 90.7057 28.5608 90.7057 27.627 89.7718C26.6931 88.838 26.6931 87.3239 27.627 86.39Z" fill="white" stroke="#9CE0FF" stroke-width="2"/>
<path d="M43.4531 65.6609L53.999 76.2067C54.9328 77.1406 56.4469 77.1406 57.3808 76.2067C58.3147 75.2729 58.3147 73.7588 57.3808 72.8249L46.835 62.2791C45.9011 61.3452 44.387 61.3452 43.4531 62.2791C42.5193 63.2129 42.5193 64.727 43.4531 65.6609Z" fill="white" stroke="#9CE0FF" stroke-width="2"/>
<path d="M27.627 65.6609L38.1728 76.2067C39.1067 77.1406 40.6208 77.1406 41.5546 76.2067C42.4885 75.2729 42.4885 73.7588 41.5546 72.8249L31.0088 62.2791C30.0749 61.3452 28.5608 61.3452 27.627 62.2791C26.6931 63.2129 26.6931 64.727 27.627 65.6609Z" fill="white" stroke="#9CE0FF" stroke-width="2"/>
<path d="M122.946 86.39L112.4 75.8442C111.466 74.9103 109.952 74.9103 109.018 75.8442C108.084 76.778 108.084 78.2921 109.018 79.226L119.564 89.7718C120.498 90.7057 122.012 90.7057 122.946 89.7718C123.88 88.838 123.88 87.3239 122.946 86.39Z" fill="white" stroke="#9CE0FF" stroke-width="2"/>
<path d="M61.54 47.5738L72.0859 58.1197C73.0198 59.0536 74.5338 59.0536 75.4677 58.1197C76.4016 57.1858 76.4016 55.6717 75.4677 54.7379L64.9219 44.192C63.988 43.2582 62.4739 43.2582 61.54 44.192C60.6062 45.1259 60.6062 46.64 61.54 47.5738Z" fill="white" stroke="#9CE0FF" stroke-width="2"/>
<path d="M89.0332 31.7478L78.4874 42.2936C77.5535 43.2275 76.0394 43.2275 75.1055 42.2936C74.1717 41.3598 74.1717 39.8457 75.1055 38.9118L85.6514 28.366C86.5852 27.4321 88.0993 27.4321 89.0332 28.366C89.9671 29.2998 89.9671 30.8139 89.0332 31.7478Z" fill="white" stroke="#9CE0FF" stroke-width="2"/>
<path d="M100.391 49H118.478C119.799 49 120.87 50.0706 120.87 51.3913C120.87 52.712 119.799 53.7826 118.478 53.7826H100.391C99.0706 53.7826 98 52.712 98 51.3913C98 50.0706 99.0706 49 100.391 49Z" fill="white" stroke="#9CE0FF" stroke-width="2"/>
<path d="M30.174 48.8695H48.261C49.5817 48.8695 50.6523 49.9401 50.6523 51.2608C50.6523 52.5815 49.5817 53.6521 48.261 53.6521H30.174C28.8533 53.6521 27.7827 52.5815 27.7827 51.2608C27.7827 49.9401 28.8533 48.8695 30.174 48.8695Z" fill="white" stroke="#9CE0FF" stroke-width="2"/>
<path d="M100.391 98H118.478C119.799 98 120.87 99.0706 120.87 100.391C120.87 101.712 119.799 102.783 118.478 102.783H100.391C99.0706 102.783 98 101.712 98 100.391C98 99.0706 99.0706 98 100.391 98Z" fill="white" stroke="#9CE0FF" stroke-width="2"/>
<path d="M31.3913 98H49.4783C50.7989 98 51.8696 99.0706 51.8696 100.391C51.8696 101.712 50.7989 102.783 49.4783 102.783H31.3913C30.0706 102.783 29 101.712 29 100.391C29 99.0706 30.0706 98 31.3913 98Z" fill="white" stroke="#9CE0FF" stroke-width="2"/>
<path d="M101.783 50.4782V32.3912C101.783 31.0706 100.712 29.9999 99.3913 29.9999C98.0706 29.9999 97 31.0706 97 32.3912V50.4782C97 51.7989 98.0706 52.8695 99.3913 52.8695C100.712 52.8695 101.783 51.7989 101.783 50.4782Z" fill="white" stroke="#9CE0FF" stroke-width="2"/>
<path d="M101.783 119.478V101.391C101.783 100.071 100.712 99 99.3914 99C98.0707 99 97.0001 100.071 97.0001 101.391V119.478C97.0001 120.799 98.0707 121.87 99.3914 121.87C100.712 121.87 101.783 120.799 101.783 119.478Z" fill="white" stroke="#9CE0FF" stroke-width="2"/>
<path d="M52.914 119.087V101C52.914 99.6793 51.8433 98.6087 50.5227 98.6087C49.202 98.6087 48.1313 99.6793 48.1313 101V119.087C48.1313 120.408 49.202 121.478 50.5227 121.478C51.8433 121.478 52.914 120.408 52.914 119.087Z" fill="white" stroke="#9CE0FF" stroke-width="2"/>
<path d="M52.914 48.9999V30.913C52.914 29.5923 51.8433 28.5217 50.5227 28.5217C49.202 28.5217 48.1313 29.5923 48.1313 30.913V48.9999C48.1313 50.3206 49.202 51.3912 50.5227 51.3912C51.8433 51.3912 52.914 50.3206 52.914 48.9999Z" fill="white" stroke="#9CE0FF" stroke-width="2"/>
<path d="M61.54 31.7478L72.0859 42.2936C73.0198 43.2275 74.5338 43.2275 75.4677 42.2936C76.4016 41.3598 76.4016 39.8457 75.4677 38.9118L64.9219 28.366C63.988 27.4321 62.4739 27.4321 61.54 28.366C60.6062 29.2998 60.6062 30.8139 61.54 31.7478Z" fill="white" stroke="#9CE0FF" stroke-width="2"/>
<circle cx="75.1958" cy="76.5" r="11.5" fill="white" stroke="#9CE0FF" stroke-width="2"/>
<rect x="93" y="74" width="4" height="3" rx="1.5" fill="white"/>
<rect x="109" y="74" width="4" height="3" rx="1.5" fill="white"/>
<rect x="74" y="94" width="4" height="3" rx="1.5" fill="white"/>
<rect x="74" y="33" width="3" height="88" fill="white"/>
<rect x="74" y="38" width="4" height="4" rx="2" fill="white"/>
<rect x="74" y="55" width="4" height="3" rx="1.5" fill="white"/>
<rect x="44.1172" y="47.0042" width="2.86692" height="88" transform="rotate(-45 44.1172 47.0042)" fill="white"/>
<rect x="31" y="78" width="3" height="88" transform="rotate(-90 31 78)" fill="white"/>
<rect x="106.63" y="43.4041" width="2.86382" height="35.7325" transform="rotate(45 106.63 43.4041)" fill="white"/>
<path d="M70.1424 79.3077L72.1007 81.266L47.2083 106.158L45.25 104.2L70.1424 79.3077Z" fill="white"/>
<rect x="46" y="99" width="4" height="3" rx="1.5" fill="white"/>
<rect x="100" y="99" width="4" height="3" rx="1.5" fill="white"/>
<rect x="75" y="108" width="3" height="3" rx="1.5" fill="white"/>
<rect x="100" y="50" width="4" height="3" rx="1.5" fill="white"/>
<path d="M45 51.2303C45 50.6358 45.482 50.1538 46.0765 50.1538H49.844C50.5111 50.1538 51.0804 50.6361 51.19 51.2941V51.2941C51.3428 52.2106 50.5549 53.0084 49.6365 52.8672L45.9128 52.2943C45.3876 52.2135 45 51.7616 45 51.2303V51.2303Z" fill="white"/>
</svg>
